<svg id="Layer_1" data-name="Layer 1" xmlns="http://www.w3.org/2000/svg" viewBox="0 0 2680.37 802.25"><defs><style>.cls-1{fill:none;stroke:#15b98a;stroke-miterlimit:10;stroke-width:46px;}.cls-2{fill:#15b98a;}</style></defs><title>gen_sign_up</title><path class="cls-1" d="M401.12,23H2657.37a0,0,0,0,1,0,0V779.25a0,0,0,0,1,0,0H401.12A378.12,378.12,0,0,1,23,401.13v0A378.12,378.12,0,0,1,401.12,23Z"/><path class="cls-2" d="M585.91,874.21V903.6H560.26v136.81H525V960q-6.42-6.4-11.49-6.41a9.88,9.88,0,0,0-6,1.87q-2.55,1.88-6.41,7.61t-10.83,17q-11.49,17.91-21,25.38t-23.38,7.48a44.87,44.87,0,0,1-22.84-6.27q-10.83-6.29-21.51-25.25l24.58-15.23q5.34,8.55,9.08,12.15a12.29,12.29,0,0,0,8.82,3.61,14,14,0,0,0,6.55-1.6q3.06-1.6,7.88-8.29a206.65,206.65,0,0,0-5.08-24.44q-2.67-9.22-8.55-14.3-6.4-5.61-17.1-8.28a247.84,247.84,0,0,0-27-4.81l5.34-16.57H391.4V874.21ZM525,903.6H448.84q15.5,4.81,21.78,13.36T479,941q5.88-9.35,11.63-13.22a24,24,0,0,1,13.76-3.88,24.35,24.35,0,0,1,10.82,2.41,50,50,0,0,1,10.28,6.94q-.27-3.74-.4-7.88t-.13-8.15Z" transform="translate(-167.5 -541.13)"/><path class="cls-2" d="M667.13,874.21V903.6H641.48v136.81H606.21V921.77a31.94,31.94,0,0,0-9.08-13.22q-5.88-4.95-15.23-4.95h-1.34V874.21h5.35a22,22,0,0,1,11.49,3.21q5.34,3.21,9.88,13.63a24.9,24.9,0,0,1-.8-6.15q-.27-4.8-.27-8.28v-20h28.86l6.14,17.63Z" transform="translate(-167.5 -541.13)"/><path class="cls-2" d="M727.78,872.34c2.85,0,5.65.14,8.42.4s5.47.58,8.15.94l-2.14,27a28.57,28.57,0,0,0-2.94-.41c-1.07-.08-2.5-.13-4.28-.13q-6.94,0-10,2.81a8.6,8.6,0,0,0-3.07,6.54q0,9.09,12,14.16,9.87-4,20.17-7.61t20.17-6.28V874.21h60.92V903.6H809.54v136.81H774.27A119,119,0,0,0,735.66,1005Q712,991.25,682.09,986.17l-13.36-31.53q8.55-4.82,17.9-9.62t19-9.35A46.72,46.72,0,0,1,692.91,922a33.53,33.53,0,0,1-4.41-17.37,35.24,35.24,0,0,1,3.48-15q3.46-7.47,12-12.42T727.78,872.34Zm-14.16,93.79a113.5,113.5,0,0,1,31.26,11.62,122.84,122.84,0,0,1,29.93,22.58q-.27-4.27-.41-8.82c-.09-3-.13-6.32-.13-9.89V941.28q-15.76,5.07-30.33,11.22T713.62,966.13Z" transform="translate(-167.5 -541.13)"/><path class="cls-2" d="M916.42,874.21V903.6H890.76v136.81H855.5V921.77a32,32,0,0,0-9.09-13.22q-5.88-4.95-15.23-4.95h-1.33V874.21h5.34a21.94,21.94,0,0,1,11.49,3.21q5.34,3.21,9.88,13.63a25.43,25.43,0,0,1-.8-6.15c-.18-3.2-.26-6-.26-8.28v-20h28.85l6.15,17.63Z" transform="translate(-167.5 -541.13)"/><path class="cls-2" d="M1084.47,874.21V903.6h-25.65v136.81h-35.27A118.9,118.9,0,0,0,984.94,1005q-23.64-13.75-53.57-18.83L918,954.64q23.52-13.1,51.3-25.39a389.93,389.93,0,0,1,55.31-19.77V903.6H911.07V874.21Zm-125.31,169.4a18.67,18.67,0,0,1-13.89-5.74,21,21,0,0,1,0-28.59,19.65,19.65,0,0,1,27.78,0,21,21,0,0,1,0,28.59A18.67,18.67,0,0,1,959.16,1043.61Zm3.74-77.48a119.74,119.74,0,0,1,60.92,33.93q-.27-7.74-.27-15.23V941.28q-15.76,5.07-30.32,11.22T962.9,966.13Z" transform="translate(-167.5 -541.13)"/><path class="cls-2" d="M1256.27,874.21V903.6h-25.65v136.81h-35.27V935.67a149.06,149.06,0,0,0-24.71-23.52q-13-9.61-26.32-9.61-8,0-13,4.54t-4.94,12.82a19.62,19.62,0,0,0,2.81,10.29q2.8,4.68,10,7.48t20.84,3.34l-4,34.74q-34.74-4-50.37-18.84t-15.63-37.81q0-14.16,6.42-24.71a43.65,43.65,0,0,1,17.36-16.3,52.7,52.7,0,0,1,24.85-5.75q18.43,0,32.06,8.29a146.58,146.58,0,0,1,25.12,19.23q-.54-10.14-.54-19.77V856.58h28.86l6.15,17.63Z" transform="translate(-167.5 -541.13)"/><path class="cls-2" d="M1493.8,874.21V903.6h-25.65v136.81h-35.27a119,119,0,0,0-38.61-35.41q-23.64-13.75-53.57-18.83l-13.36-31.53q23.51-13.1,51.3-25.39A389.93,389.93,0,0,1,1434,909.48V903.6H1320.4V874.21Zm-121.57,91.92a119.74,119.74,0,0,1,60.92,33.93q-.27-7.74-.27-15.23V941.28q-15.77,5.07-30.32,11.22T1372.23,966.13Z" transform="translate(-167.5 -541.13)"/><path class="cls-2" d="M1570,874.21V903.6h-11q-8,8.29-11.36,15.64a39.86,39.86,0,0,0-3.34,16.69,78.25,78.25,0,0,0,2.27,18.31q2.27,9.48,4.54,19.23a85.49,85.49,0,0,1,2.27,19.38,68.17,68.17,0,0,1-4.81,26.31q-4.8,11.63-18,20.44t-38.88,14.7l-7.74-28.86q14.68-3.74,22-8.55t9.62-10.95a38.36,38.36,0,0,0,2.27-13.36,82.65,82.65,0,0,0-2.27-19.51q-2.28-9.35-4.55-18.43a77.05,77.05,0,0,1-2.27-18.71,43.54,43.54,0,0,1,3.21-17.5,64,64,0,0,1,9.35-14.83h-32.86V874.21Z" transform="translate(-167.5 -541.13)"/><path class="cls-2" d="M1738,874.21V903.6h-25.65v136.81h-35.27a119.1,119.1,0,0,0-38.61-35.41q-23.64-13.75-53.57-18.83l-13.36-31.53q23.51-13.1,51.3-25.39a389.49,389.49,0,0,1,55.31-19.77V903.6H1564.6V874.21Zm-121.57,91.92a119.74,119.74,0,0,1,60.92,33.93q-.27-7.74-.27-15.23V941.28q-15.77,5.07-30.33,11.22T1616.44,966.13Z" transform="translate(-167.5 -541.13)"/><path class="cls-2" d="M1805.61,910.82q24.57,0,39.14,7.35t21,18.57a45.73,45.73,0,0,1,6.42,23q0,17.91-9.35,28.86t-26.72,16.57a214.7,214.7,0,0,1,28,12.42,258.78,258.78,0,0,1,27.25,16.7l-18.7,24.85a273.67,273.67,0,0,0-56.11-31q-31-12.82-68.93-18.7l5.87-28a165.56,165.56,0,0,0,18.17,3.74,124.91,124.91,0,0,0,18.17,1.33q25.38,0,36.07-7.21T1836.6,960a18.88,18.88,0,0,0-7.35-15.5q-7.35-5.87-20.7-5.87-11.76,0-16.44,3.07t-4.67,9.22a14.23,14.23,0,0,0,1.6,6.41l-33.13,4.81a54,54,0,0,1-2.67-9.22,48.08,48.08,0,0,1-1.07-9.75q0-17.1,19-25.92-5.09-9.08-17.37-13.63h-21.11V874.21h158.45V903.6h-92.72a32.53,32.53,0,0,1,5.88,7.22Z" transform="translate(-167.5 -541.13)"/><path class="cls-2" d="M1972.33,874.21V903.6h-25.65v136.81h-35.27V921.77a31.94,31.94,0,0,0-9.08-13.22q-5.88-4.95-15.23-4.95h-1.34V874.21h5.35a22,22,0,0,1,11.49,3.21q5.34,3.21,9.88,13.63a24.9,24.9,0,0,1-.8-6.15q-.27-4.8-.27-8.28v-20h28.86l6.15,17.63Z" transform="translate(-167.5 -541.13)"/><path class="cls-2" d="M2140.39,874.21V903.6h-25.65v136.81h-35.27a119,119,0,0,0-38.61-35.41q-23.64-13.75-53.57-18.83l-13.36-31.53q23.5-13.1,51.3-25.39a389.49,389.49,0,0,1,55.31-19.77V903.6H1967V874.21Zm-125.31,169.4a18.68,18.68,0,0,1-13.9-5.74,21,21,0,0,1,0-28.59,19.66,19.66,0,0,1,27.79,0,21,21,0,0,1,0,28.59A18.67,18.67,0,0,1,2015.08,1043.61Zm3.74-77.48a119.74,119.74,0,0,1,60.92,33.93q-.27-7.74-.27-15.23V941.28q-15.76,5.07-30.33,11.22T2018.82,966.13Z" transform="translate(-167.5 -541.13)"/><path class="cls-2" d="M2358.15,971.47a40.45,40.45,0,0,1-3.61,16.83q-3.6,8-12.42,13.1t-24.58,5.07a98,98,0,0,1-19-1.6l1.07-29.39a26.41,26.41,0,0,0,3.34.4c1.34.09,3.08.13,5.21.13q9.63,0,12.56-3.34a11.88,11.88,0,0,0,2.94-8.15q0-8.53-10.42-15.23t-30.46-10.68v101.8h-35.27a119,119,0,0,0-38.61-35.41q-23.64-13.75-53.57-18.83L2142,954.64a560.16,560.16,0,0,1,51.17-25.25,440.26,440.26,0,0,1,55.17-19.91V903.6H2135V874.21h234.33V903.6h-87.1v5.62a135,135,0,0,1,38.34,11.48q17.23,8.29,27.38,21A46.26,46.26,0,0,1,2358.15,971.47Zm-171.27-5.34a113.5,113.5,0,0,1,31.26,11.62,126.37,126.37,0,0,1,29.93,22.31c-.18-2.14-.32-4.41-.4-6.81s-.14-4.85-.14-7.35V941.28q-15.77,5.07-30.32,11.22T2186.88,966.13Z" transform="translate(-167.5 -541.13)"/><path class="cls-2" d="M2450.59,874.21V903.6h-25.65v136.81h-35.27V921.77a31.85,31.85,0,0,0-9.08-13.22q-5.88-4.95-15.23-4.95H2364V874.21h5.35a22,22,0,0,1,11.49,3.21q5.34,3.21,9.88,13.63a24.9,24.9,0,0,1-.8-6.15q-.27-4.8-.27-8.28v-20h28.86l6.15,17.63Z" transform="translate(-167.5 -541.13)"/><path class="cls-2" d="M2618.65,874.21V903.6H2593v136.81h-35.27a119,119,0,0,0-38.61-35.41q-23.64-13.75-53.57-18.83l-13.36-31.53q23.52-13.1,51.3-25.39a389.93,389.93,0,0,1,55.31-19.77V903.6H2445.25V874.21Zm-125.31,169.4a18.67,18.67,0,0,1-13.89-5.74,21,21,0,0,1,0-28.59,19.65,19.65,0,0,1,27.78,0,21,21,0,0,1,0,28.59A18.67,18.67,0,0,1,2493.34,1043.61Zm3.74-77.48a119.74,119.74,0,0,1,60.92,33.93q-.27-7.74-.27-15.23V941.28q-15.77,5.07-30.32,11.22T2497.08,966.13Z" transform="translate(-167.5 -541.13)"/><path class="cls-2" d="M2699.88,903.6h-25.65v136.81H2639V903.6h-25.65V874.21H2639q-5.36-27.78-30.06-39.94t-67.73-12.16q-19.77,0-29.53,2.81t-9.75,7.08a3.58,3.58,0,0,0,2.81,3.6c1.87.63,5.47.94,10.82.94h27q15.49,0,24.72,2.54a38.25,38.25,0,0,1,15.09,7.61,27.71,27.71,0,0,1,7.75,11.76q2.42,6.94,2.41,17.63H2558.8q0-9.35-5.34-12.55a20.31,20.31,0,0,0-5.35-2,36.44,36.44,0,0,0-7.74-.67h-19.51q-16,0-25.12-1.73a48,48,0,0,1-14.69-5,21.27,21.27,0,0,1-9.35-9.48,28.5,28.5,0,0,1-2.67-12.16q0-16.56,19.1-26.85t58.38-10.29q58.24,0,91.11,19.11t37.14,59.71h25.12Z" transform="translate(-167.5 -541.13)"/></svg>