<svg id="Layer_1" data-name="Layer 1" xmlns="http://www.w3.org/2000/svg" viewBox="0 0 615.62 90.48"><defs><style>.cls-1{isolation:isolate;}.cls-2{fill:#fff;}.cls-3{fill:#63a9d8;}</style></defs><title>logo_blue</title><g id="আশে_পাশে_" data-name="আশে পাশে " class="cls-1"><g class="cls-1"><path class="cls-2" d="M78.48,92.58a14.35,14.35,0,0,0-1.58-7.3,5,5,0,0,0-4.6-2.69,4.79,4.79,0,0,0-4,2,7.75,7.75,0,0,0-1.51,4.87,17.07,17.07,0,0,0,.65,4.47,8.33,8.33,0,0,1-4.07,3.42A14.22,14.22,0,0,1,57.7,98.5a11.48,11.48,0,0,1-7.82-3.09q-3.5-3.09-3.49-9.4a16.82,16.82,0,0,1,4.08-11q4.08-4.92,13.15-6.37H13.78A6.83,6.83,0,0,1,8.84,66.8q-1.9-1.83-1.9-6a14,14,0,0,1,.65-4.34,25.21,25.21,0,0,1,1.32-3.28H145.16a20.5,20.5,0,0,1,8.35,1.64,12.75,12.75,0,0,1,5.86,5.06,9.83,9.83,0,0,1,4.6-5.19,15.64,15.64,0,0,1,7.1-1.51h5.79A6.8,6.8,0,0,1,181.79,55c1.27,1.23,1.91,3.24,1.91,6.05a13.62,13.62,0,0,1-.66,4.34,26,26,0,0,1-1.32,3.29h-9.33A7.7,7.7,0,0,0,167.65,70q-1.85,1.38-1.84,5.59v63.26a26.48,26.48,0,0,1-3.16.65,31.27,31.27,0,0,1-5.26.4,26.31,26.31,0,0,1-4.8-.4,9.92,9.92,0,0,1-3.75-1.44,6.79,6.79,0,0,1-2.43-3,12.62,12.62,0,0,1-.85-5V72.85a4.56,4.56,0,0,0-1-3A3.18,3.18,0,0,0,142,68.65H128.46v67.2a10.36,10.36,0,0,1-4.28,2.57,21.77,21.77,0,0,1-7,1,10,10,0,0,1-1.78-.13l-1.25-.26Q107,133.88,99.33,129T84.79,120.2a34.83,34.83,0,0,1-10.25,4.87,48.74,48.74,0,0,1-14.47,2,48.45,48.45,0,0,1-24.79-6.38A41.57,41.57,0,0,1,16.41,95.28a31.37,31.37,0,0,1-.92-7.83A10.34,10.34,0,0,1,26.27,76.67a17.15,17.15,0,0,1,4.93.59,20,20,0,0,1,3,1.12l.92,6.31a38.11,38.11,0,0,0,3.29,11.57,27.2,27.2,0,0,0,5.72,8A22,22,0,0,0,51.52,109a24.59,24.59,0,0,0,8.55,1.51,18.92,18.92,0,0,0,13.15-4.74Q78.49,101,78.48,92.58ZM96,106.39c2.2,1.23,4.36,2.55,6.51,4l6.25,4.07q-.27-3.42-.39-7.36t-.13-6.71V68.65H79.93a19.7,19.7,0,0,1,7,2.76,23.84,23.84,0,0,1,5.92,5.26A24.74,24.74,0,0,1,97,84.1a27.56,27.56,0,0,1,1.51,9.27A38.85,38.85,0,0,1,98,99.88,29.21,29.21,0,0,1,96,106.39Z" transform="translate(-6.94 -51.55)"/><path class="cls-2" d="M222.23,53.13A6.78,6.78,0,0,1,227.16,55c1.27,1.23,1.91,3.24,1.91,6.05a13.62,13.62,0,0,1-.66,4.34,27.73,27.73,0,0,1-1.31,3.29H213.55a15.79,15.79,0,0,0-4.34,3.94,32.53,32.53,0,0,0-4.08,6.71,46.66,46.66,0,0,0-3,8.88,45.11,45.11,0,0,0-1.19,10.58,37.56,37.56,0,0,0,1.45,10.92,33.85,33.85,0,0,0,3.81,8.42,29.69,29.69,0,0,0,5.46,6.37,35,35,0,0,0,6.51,4.54,13.74,13.74,0,0,1,.2,1.45c0,.52.07,1,.07,1.58a9.3,9.3,0,0,1-10,10,19.73,19.73,0,0,1-9.67-2.76,30.35,30.35,0,0,1-9-8A43.74,43.74,0,0,1,183,118.62a51.31,51.31,0,0,1-2.63-17.1,55.1,55.1,0,0,1,3-19,49.09,49.09,0,0,1,7.56-13.87H171.6a6.83,6.83,0,0,1-4.94-1.85q-1.91-1.83-1.9-6a14,14,0,0,1,.65-4.34,25.21,25.21,0,0,1,1.32-3.28Z" transform="translate(-6.94 -51.55)"/><path class="cls-2" d="M226,53.13q9.35,0,15.19,3a19.47,19.47,0,0,1,8.48,7.56,23.35,23.35,0,0,1,8.62-8.88,25.28,25.28,0,0,1,13.09-3.22,24.94,24.94,0,0,1,10.25,2.3,18.71,18.71,0,0,1,8.29,7.3,13.38,13.38,0,0,1,4.41-5.79,12.64,12.64,0,0,1,7.82-2.23h14.2A6.82,6.82,0,0,1,321.33,55c1.27,1.23,1.9,3.24,1.9,6.05a13.91,13.91,0,0,1-.65,4.34,26,26,0,0,1-1.32,3.29H305.35v68.52a26.51,26.51,0,0,1-3.22.65,31.81,31.81,0,0,1-5.2.4,26.31,26.31,0,0,1-4.8-.4,9.79,9.79,0,0,1-3.75-1.44,6.73,6.73,0,0,1-2.43-3,12.61,12.61,0,0,1-.86-5v-48a15.8,15.8,0,0,0-4.6-8.29,12,12,0,0,0-8.42-3.15,11.12,11.12,0,0,0-8,2.89,10.39,10.39,0,0,0-3,7.89,9.26,9.26,0,0,0,3,7.3,10.86,10.86,0,0,0,7.5,2.7,14.91,14.91,0,0,0,3.68-.4,10.25,10.25,0,0,1,1.58,3.55,16.91,16.91,0,0,1,.52,4.08c0,3.68-1.11,6.34-3.35,8a14.33,14.33,0,0,1-8.61,2.43,17.54,17.54,0,0,1-9-2.5,14.68,14.68,0,0,1-6.25-7.1,14.91,14.91,0,0,1-6.31,7.17,20,20,0,0,1-10.52,2.69,14.36,14.36,0,0,1-8.95-2.69q-3.56-2.7-3.55-8a16.21,16.21,0,0,1,.59-4.6A11.21,11.21,0,0,1,223,88.9a17.37,17.37,0,0,0,5.92.79,11.16,11.16,0,0,0,7.36-2.5q3-2.5,3-7.63A10.27,10.27,0,0,0,236,71.74q-3.3-3.09-10-3.09h-8a6.79,6.79,0,0,1-4.93-1.85q-1.91-1.83-1.91-6a13.67,13.67,0,0,1,.66-4.34,26.84,26.84,0,0,1,1.31-3.28Z" transform="translate(-6.94 -51.55)"/></g><g class="cls-1"><path class="cls-3" d="M438.83,53.13A6.81,6.81,0,0,1,443.77,55c1.27,1.23,1.9,3.24,1.9,6.05a13.91,13.91,0,0,1-.65,4.34,26,26,0,0,1-1.32,3.29H427.79v68.52a26.51,26.51,0,0,1-3.22.65,31.81,31.81,0,0,1-5.2.4,26.31,26.31,0,0,1-4.8-.4,9.79,9.79,0,0,1-3.75-1.44,6.73,6.73,0,0,1-2.43-3,12.61,12.61,0,0,1-.86-5V90.61l-29.06,29.33a17.35,17.35,0,0,1-4.8-1.91,26.21,26.21,0,0,1-4.47-3.16,27.14,27.14,0,0,1-3.55-3.68,11.81,11.81,0,0,1-2-3.48l2.76-3.42c.44-.62.87-1.27,1.31-2a4.59,4.59,0,0,0,.66-2.5,4.52,4.52,0,0,0-1.12-3,4.16,4.16,0,0,0-3.35-1.31H353.61a5.89,5.89,0,0,1-5.39-2.77,10.41,10.41,0,0,1-1.12-3.28,20.74,20.74,0,0,1-.46-4.21,34.37,34.37,0,0,1,3-15,30.41,30.41,0,0,1,8-10.45,33.75,33.75,0,0,1,11.37-6.18,42.77,42.77,0,0,1,13.09-2,35.48,35.48,0,0,1,9.67,1.25A40.27,40.27,0,0,1,399.91,56a34.42,34.42,0,0,1,6.51,4.47,49.11,49.11,0,0,1,4.93,5,14.8,14.8,0,0,1,3.75-8.88q3.21-3.48,9.4-3.48ZM397.28,75.88A28.45,28.45,0,0,0,391,71a16.86,16.86,0,0,0-8.62-2.1,16.08,16.08,0,0,0-10.19,3.22,11.93,11.93,0,0,0-4.67,8.62h2.24a16.39,16.39,0,0,1,8.28,2.1,13.46,13.46,0,0,1,5.66,7.1Z" transform="translate(-6.94 -51.55)"/><path class="cls-3" d="M433.57,68.65a6.8,6.8,0,0,1-4.93-1.85q-1.9-1.83-1.91-6a13.67,13.67,0,0,1,.66-4.34,25.21,25.21,0,0,1,1.32-3.28h15.78a20.5,20.5,0,0,1,8.35,1.64,12.67,12.67,0,0,1,5.85,5.06,9.87,9.87,0,0,1,4.6-5.19,15.71,15.71,0,0,1,7.11-1.51h5.78A6.82,6.82,0,0,1,481.12,55c1.27,1.23,1.9,3.24,1.9,6.05a13.91,13.91,0,0,1-.65,4.34,26,26,0,0,1-1.32,3.29h-9.34A7.67,7.67,0,0,0,467,70q-1.85,1.38-1.84,5.59v63.26a26.48,26.48,0,0,1-3.16.65,31.35,31.35,0,0,1-5.26.4,26.23,26.23,0,0,1-4.8-.4,9.79,9.79,0,0,1-3.75-1.44,6.79,6.79,0,0,1-2.43-3,12.61,12.61,0,0,1-.86-5V72.85a4.61,4.61,0,0,0-1-3,3.19,3.19,0,0,0-2.57-1.18Z" transform="translate(-6.94 -51.55)"/><path class="cls-3" d="M521.56,53.13A6.8,6.8,0,0,1,526.49,55c1.27,1.23,1.91,3.24,1.91,6.05a13.62,13.62,0,0,1-.66,4.34,26,26,0,0,1-1.32,3.29H512.88a15.65,15.65,0,0,0-4.34,3.94,32.1,32.1,0,0,0-4.08,6.71,46.66,46.66,0,0,0-3,8.88,45.66,45.66,0,0,0-1.18,10.58,37.22,37.22,0,0,0,1.45,10.92,33.49,33.49,0,0,0,3.81,8.42,29.69,29.69,0,0,0,5.46,6.37,35,35,0,0,0,6.51,4.54,13.74,13.74,0,0,1,.2,1.45c0,.52.06,1,.06,1.58a9.28,9.28,0,0,1-10,10,19.73,19.73,0,0,1-9.67-2.76,30.38,30.38,0,0,1-9-8,43.73,43.73,0,0,1-6.7-12.69,51.3,51.3,0,0,1-2.64-17.1,55.34,55.34,0,0,1,3-19,49.36,49.36,0,0,1,7.57-13.87H470.92A6.8,6.8,0,0,1,466,66.8q-1.9-1.83-1.91-6a13.67,13.67,0,0,1,.66-4.34,25.21,25.21,0,0,1,1.32-3.28Z" transform="translate(-6.94 -51.55)"/><path class="cls-3" d="M525.37,53.13q9.33,0,15.19,3A19.47,19.47,0,0,1,549,63.65a23.35,23.35,0,0,1,8.62-8.88,25.24,25.24,0,0,1,13.08-3.22A25,25,0,0,1,581,53.85a18.76,18.76,0,0,1,8.29,7.3,13.44,13.44,0,0,1,4.4-5.79,12.67,12.67,0,0,1,7.83-2.23h14.2A6.82,6.82,0,0,1,620.66,55c1.26,1.23,1.9,3.24,1.9,6.05a13.62,13.62,0,0,1-.66,4.34,26.12,26.12,0,0,1-1.31,3.29H604.68v68.52a26.82,26.82,0,0,1-3.23.65,31.6,31.6,0,0,1-5.19.4,26.16,26.16,0,0,1-4.8-.4,9.79,9.79,0,0,1-3.75-1.44,6.73,6.73,0,0,1-2.43-3,12.61,12.61,0,0,1-.86-5v-48a15.8,15.8,0,0,0-4.6-8.29,12,12,0,0,0-8.42-3.15,11.1,11.1,0,0,0-8,2.89,10.4,10.4,0,0,0-3,7.89,9.27,9.27,0,0,0,3,7.3,10.83,10.83,0,0,0,7.5,2.7,14.91,14.91,0,0,0,3.68-.4,10.25,10.25,0,0,1,1.58,3.55,16.91,16.91,0,0,1,.52,4.08c0,3.68-1.12,6.34-3.35,8a14.34,14.34,0,0,1-8.62,2.43,17.5,17.5,0,0,1-9-2.5,14.63,14.63,0,0,1-6.25-7.1,15,15,0,0,1-6.31,7.17,20,20,0,0,1-10.53,2.69,14.35,14.35,0,0,1-8.94-2.69q-3.55-2.7-3.55-8a16.21,16.21,0,0,1,.59-4.6,11.21,11.21,0,0,1,1.65-3.42,17.34,17.34,0,0,0,5.91.79,11.17,11.17,0,0,0,7.37-2.5q3-2.5,3-7.63a10.26,10.26,0,0,0-3.28-7.82q-3.3-3.09-10-3.09h-8a6.79,6.79,0,0,1-4.93-1.85q-1.9-1.83-1.91-6a13.67,13.67,0,0,1,.66-4.34,25.32,25.32,0,0,1,1.31-3.28Z" transform="translate(-6.94 -51.55)"/></g></g></svg>