<svg id="Layer_1" data-name="Layer 1" xmlns="http://www.w3.org/2000/svg" viewBox="0 0 2680.37 802.25"><defs><style>.cls-1{fill:#00ba89;stroke:#15b98a;stroke-miterlimit:10;stroke-width:46px;}.cls-2{fill:#fff;}</style></defs><title>sp_sign_up</title><path class="cls-1" d="M2279.26,23c208.83,0,378.12,169.3,378.11,378.13h0c0,208.83-169.29,378.12-378.12,378.12H23V23H2279.26Z" transform="translate(0 0)"/><path class="cls-2" d="M915.47,342.2v28.71H900.59A91.76,91.76,0,0,0,878.28,386,78.43,78.43,0,0,0,861.45,408a59.52,59.52,0,0,0-6.52,27.92q0,15.66,4.69,24.53t11.75,12.4a31.34,31.34,0,0,0,14.09,3.52,45.09,45.09,0,0,0,9.13-.91,42.41,42.41,0,0,0,10.18-3.79l13.05,25.83a56.6,56.6,0,0,1-17,6.66,87.62,87.62,0,0,1-17.48,1.7q-29.22,0-46.32-17.88T820,436.66a92.69,92.69,0,0,1,8.61-39.79,111.72,111.72,0,0,1,23.1-32.62,106,106,0,0,1,32.74-22.05Z" transform="translate(0 0)"/><path class="cls-2" d="M1100.21,342.2v28.71h-25v133.6h-34.44V426q-6.27-6.27-11.22-6.27a9.61,9.61,0,0,0-5.87,1.83q-2.49,1.83-6.27,7.44t-10.56,16.57Q995.57,463,986.31,470.33t-22.83,7.3a43.74,43.74,0,0,1-22.31-6.13q-10.57-6.13-21-24.66l24-14.87q5.22,8.36,8.87,11.87a12,12,0,0,0,8.61,3.52,13.72,13.72,0,0,0,6.4-1.56q3-1.57,7.69-8.09a201.1,201.1,0,0,0-5-23.88q-2.61-9-8.35-14-6.25-5.47-16.7-8.09a242.55,242.55,0,0,0-26.35-4.7l5.22-16.17H910.25V342.2Zm-59.49,28.71H966.35q15.14,4.69,21.27,13t8.22,23.49q5.73-9.13,11.35-12.92a23.48,23.48,0,0,1,13.44-3.78,23.77,23.77,0,0,1,10.56,2.35,48.27,48.27,0,0,1,10,6.78c-.17-2.43-.31-5-.39-7.7s-.13-5.35-.13-8Z" transform="translate(0 0)"/><path class="cls-2" d="M1264.35,342.2v28.71h-25v133.6h-34.45a116.31,116.31,0,0,0-37.7-34.58q-23.1-13.43-52.32-18.39l-13-30.79q23-12.79,50.1-24.79a380,380,0,0,1,54-19.31v-5.74H1095V342.2ZM1145.62,432a116.83,116.83,0,0,1,59.49,33.14c-.17-5.05-.26-10-.26-14.88V407.7q-15.39,5-29.62,11T1145.62,432Z" transform="translate(0 0)"/><path class="cls-2" d="M1343.68,342.2v28.71h-25.06v133.6h-34.44V388.65a31.29,31.29,0,0,0-8.87-12.92q-5.74-4.82-14.88-4.82h-1.3V342.2h5.22a21.41,21.41,0,0,1,11.22,3.13q5.22,3.14,9.65,13.31a24.11,24.11,0,0,1-.78-6q-.26-4.69-.26-8.09V325h28.18l6,17.22Z" transform="translate(0 0)"/><path class="cls-2" d="M1510.42,342.2v28.71H1395.08V430.4A213.06,213.06,0,0,1,1428,405.87a286.51,286.51,0,0,1,42-21.13l23.75,19.83a75.34,75.34,0,0,0-8.35,21.66,115.83,115.83,0,0,0-2.61,25.31,141.75,141.75,0,0,0,2.08,22.83,168.66,168.66,0,0,0,6.53,26l-33.66,7.05a197.8,197.8,0,0,1-7.18-26.88,151.81,151.81,0,0,1-2.48-28.44,95.77,95.77,0,0,1,.91-13.31,82,82,0,0,1,2.74-12.52,258.5,258.5,0,0,0-33.4,22.57q-15.91,12.66-29.22,25.18l-28.45-18.53V370.91h-22.18V342.2Z" transform="translate(0 0)"/><path class="cls-2" d="M1589.74,342.2v28.71h-25v133.6h-34.44V388.65a31.29,31.29,0,0,0-8.87-12.92q-5.75-4.82-14.88-4.82h-1.3V342.2h5.21a21.47,21.47,0,0,1,11.23,3.13q5.2,3.14,9.65,13.31a24.11,24.11,0,0,1-.78-6c-.18-3.13-.26-5.83-.26-8.09V325h28.18l6,17.22Z" transform="translate(0 0)"/><path class="cls-2" d="M1780.75,342.2v28.71H1584.52V342.2Zm-81.41,153.7a105.32,105.32,0,0,1-45-9.53q-20.49-9.51-36.27-32t-26.75-61.59l32.62-9.13q12.27,42.27,28.71,62.24t42.53,20q20.1,0,29.75-7.83t9.66-23.22q0-13.3-6.92-20a22.46,22.46,0,0,0-16.05-6.65,15.87,15.87,0,0,0-10,3.13q-4.05,3.13-4,9.4A31.15,31.15,0,0,0,1699.6,432l-32.62,5a55.48,55.48,0,0,1-3.65-11.23,47,47,0,0,1-1-9.13q0-13.05,6.53-21a37.38,37.38,0,0,1,17-11.61,68.35,68.35,0,0,1,22.7-3.65q19.58,0,33.14,7.57a51.11,51.11,0,0,1,20.61,20.61,61,61,0,0,1,7,29.49,59.47,59.47,0,0,1-7.18,28.7q-7.17,13.32-22.7,21.27T1699.34,495.9Z" transform="translate(0 0)"/><path class="cls-2" d="M1860.08,342.2v28.71h-25v133.6h-34.45V388.65a31.2,31.2,0,0,0-8.87-12.92q-5.74-4.82-14.87-4.82h-1.31V342.2h5.22a21.41,21.41,0,0,1,11.22,3.13q5.22,3.14,9.66,13.31a24.45,24.45,0,0,1-.79-6q-.25-4.69-.26-8.09V325h28.19l6,17.22Z" transform="translate(0 0)"/></svg>